<svg width="167" height="56" viewBox="0 0 167 56" fill="none" xmlns="http://www.w3.org/2000/svg">
<path d="M6.37 0.569998C7.37 0.389998 9.19 0.429998 11.83 0.689999C13.39 0.849999 14.45 0.939999 15.01 0.959999C15.63 0.979998 16.02 1.08 16.18 1.26C16.36 1.44 16.36 1.76 16.18 2.22C16.06 2.6 15.92 2.86 15.76 3C15.6 3.12 15.38 3.18 15.1 3.18C14.78 3.18 14.47 3.28 14.17 3.48C13.89 3.68 13.67 3.93 13.51 4.23C13.37 4.53 13.23 5.03 13.09 5.73C12.85 6.79 12.22 8.51 11.2 10.89C10.5 12.47 10.03 13.62 9.79 14.34C9.57 15.06 9.4 15.89 9.28 16.83C9.14 18.01 9.11 18.64 9.19 18.72C9.35 18.88 10.12 19.02 11.5 19.14C12.1 19.2 12.78 19.21 13.54 19.17C14.32 19.13 14.78 19.06 14.92 18.96C15.02 18.9 15.29 18.61 15.73 18.09C16.45 17.29 17.15 16.66 17.83 16.2C18.53 15.72 19.13 15.47 19.63 15.45C19.97 15.45 20.2 15.51 20.32 15.63C20.46 15.73 20.52 15.91 20.5 16.17C20.48 16.35 20.24 17.06 19.78 18.3C19.34 19.54 19.04 20.33 18.88 20.67C18.78 20.89 18.64 21.03 18.46 21.09C18.28 21.15 17.72 21.22 16.78 21.3C15.78 21.36 14.99 21.42 14.41 21.48C13.69 21.54 12.81 21.56 11.77 21.54C10.73 21.54 9.99 21.5 9.55 21.42C9.03 21.32 7.85 21.3 6.01 21.36C2.59 21.5 0.78 21.48 0.58 21.3C0.26 21.04 0.16 20.76 0.28 20.46C0.36 20.3 0.4 20.07 0.4 19.77C0.42 19.45 0.51 19.22 0.67 19.08C0.83 18.92 1.14 18.79 1.6 18.69C2.12 18.59 2.56 18.4 2.92 18.12C3.3 17.84 3.51 17.62 3.55 17.46C3.89 16.28 4.39 14.88 5.05 13.26C5.59 11.94 5.96 10.97 6.16 10.35C6.36 9.71 6.66 8.6 7.06 7.02C7.38 5.8 7.55 5.07 7.57 4.83C7.61 4.59 7.59 4.38 7.51 4.2C7.35 3.84 7.12 3.61 6.82 3.51C6.02 3.27 5.62 2.67 5.62 1.71C5.62 1.31 5.67 1.03 5.77 0.87C5.87 0.71 6.07 0.609999 6.37 0.569998ZM30.9925 0.449998C31.1325 0.429998 31.2725 0.419999 31.4125 0.419999C32.0725 0.499999 32.5725 0.999999 32.9125 1.92C33.1925 2.62 33.1725 3.31 32.8525 3.99C32.4725 4.81 31.8525 5.22 30.9925 5.22C30.3725 5.22 29.8125 4.98 29.3125 4.5C28.8325 4.02 28.6125 3.48 28.6525 2.88C28.6925 2.26 28.8725 1.73 29.1925 1.29C29.5925 0.75 30.1125 0.459999 30.7525 0.419999C30.8325 0.419999 30.9125 0.429998 30.9925 0.449998ZM30.3925 18.09C30.4125 18.09 30.4325 18.07 30.4525 18.03C30.4925 17.99 30.5325 17.94 30.5725 17.88C30.6325 17.78 30.7225 17.7 30.8425 17.64C30.9025 17.58 30.9625 17.53 31.0225 17.49C31.2225 17.33 31.4025 17.22 31.5625 17.16C31.7225 17.08 31.8825 17.05 32.0425 17.07C32.3025 17.09 32.4925 17.21 32.6125 17.43C32.7325 17.63 32.7725 17.86 32.7325 18.12C32.6925 18.26 32.6225 18.41 32.5225 18.57C32.3825 18.83 32.1625 19.1 31.8625 19.38C31.2425 19.94 30.5325 20.43 29.7325 20.85C29.0525 21.19 28.4325 21.39 27.8725 21.45C27.4525 21.57 27.0625 21.62 26.7025 21.6C26.1625 21.56 25.6825 21.34 25.2625 20.94C24.5825 20.24 24.2725 19.33 24.3325 18.21C24.3925 17.45 24.6525 16.49 25.1125 15.33C25.2125 15.07 25.3525 14.73 25.5325 14.31C25.9125 13.43 26.1525 12.84 26.2525 12.54C26.4325 12.08 26.5425 11.7 26.5825 11.4C26.4425 11.52 26.2125 11.74 25.8925 12.06L25.8325 12.12C25.8125 12.14 25.8025 12.16 25.8025 12.18C25.7625 12.22 25.7225 12.26 25.6825 12.3C25.4425 12.54 25.2425 12.73 25.0825 12.87C24.8225 13.09 24.5725 13.25 24.3325 13.35C24.1525 13.41 23.9725 13.4 23.7925 13.32C23.6325 13.24 23.5225 13.12 23.4625 12.96C23.4425 12.84 23.4325 12.73 23.4325 12.63C23.4125 12.49 23.4425 12.35 23.5225 12.21C23.8825 11.61 24.2425 11.09 24.6025 10.65C25.1225 10.03 25.6425 9.58 26.1625 9.3C27.5225 8.64 28.5725 8.32 29.3125 8.34C30.2325 8.4 30.7825 8.87 30.9625 9.75C31.0825 10.31 31.0125 11.09 30.7525 12.09C30.5725 12.75 30.2725 13.65 29.8525 14.79C29.8125 14.91 29.7625 15.05 29.7025 15.21C29.3025 16.29 29.0325 17.02 28.8925 17.4C28.6525 18.12 28.5125 18.67 28.4725 19.05C28.4525 19.19 28.4525 19.31 28.4725 19.41C28.6125 19.41 28.8125 19.35 29.0725 19.23H29.1025C29.1425 19.19 29.1925 19.15 29.2525 19.11C29.4525 18.95 29.6625 18.77 29.8825 18.57C29.9625 18.51 30.0525 18.43 30.1525 18.33C30.2725 18.21 30.3425 18.14 30.3625 18.12L30.3925 18.09ZM39.6808 8.4C40.3408 8.24 41.1308 8.23 42.0508 8.37C42.9908 8.49 43.8208 8.72 44.5408 9.06C44.6808 9.12 44.7908 9.15 44.8708 9.15C44.9508 9.13 45.1208 9.07 45.3808 8.97C46.7008 8.39 47.7908 8.29 48.6508 8.67C48.9708 8.81 49.1908 8.98 49.3108 9.18C49.4508 9.36 49.5208 9.62 49.5208 9.96C49.5208 10.38 49.4108 10.74 49.1908 11.04C48.9708 11.32 48.7108 11.46 48.4108 11.46C48.2508 11.46 47.9508 11.38 47.5108 11.22C47.0508 11.06 46.8108 10.99 46.7908 11.01C46.7708 11.03 46.8008 11.19 46.8808 11.49C47.1208 12.25 47.0608 13.06 46.7008 13.92C46.3608 14.76 45.7908 15.51 44.9908 16.17C43.8508 17.13 42.5208 17.68 41.0008 17.82C40.4008 17.88 40.0708 17.92 40.0108 17.94C39.9308 18 39.7008 18.05 39.3208 18.09C38.9608 18.13 38.7308 18.13 38.6308 18.09C38.5108 18.03 38.4108 18.03 38.3308 18.09C38.1708 18.19 38.4708 18.42 39.2308 18.78C39.5708 18.96 40.0108 19.16 40.5508 19.38C42.6708 20.22 44.1608 20.97 45.0208 21.63C45.8808 22.29 46.3508 23.04 46.4308 23.88C46.4908 24.4 46.4108 24.92 46.1908 25.44C45.9708 25.96 45.6508 26.38 45.2308 26.7C44.6308 27.16 43.8708 27.52 42.9508 27.78C42.2708 28 41.7308 28.16 41.3308 28.26C40.5508 28.5 39.9308 28.65 39.4708 28.71C39.0108 28.79 38.3908 28.83 37.6108 28.83C36.6908 28.83 35.9308 28.77 35.3308 28.65C34.7508 28.53 34.1108 28.29 33.4108 27.93C32.5908 27.51 31.9908 27.06 31.6108 26.58C31.2308 26.1 31.0408 25.54 31.0408 24.9C31.0408 24.14 31.2908 23.47 31.7908 22.89C32.2708 22.33 32.8408 22.05 33.5008 22.05C34.1008 22.05 34.4608 22.43 34.5808 23.19L34.7008 23.82L34.4008 24.18C34.1008 24.56 33.9508 24.88 33.9508 25.14C33.9508 25.4 34.1008 25.67 34.4008 25.95C35.2008 26.65 36.3608 26.96 37.8808 26.88C39.4808 26.78 40.5408 26.41 41.0608 25.77L41.3308 25.44L41.1208 24.9C41.0008 24.64 40.9008 24.47 40.8208 24.39C40.7408 24.33 40.5308 24.23 40.1908 24.09C38.6308 23.45 37.5508 22.97 36.9508 22.65C36.3508 22.35 35.8608 22.02 35.4808 21.66C34.6808 20.92 34.3708 20.05 34.5508 19.05C34.7508 18.03 35.3808 17.23 36.4408 16.65L36.8908 16.38L36.4708 15.96C35.8908 15.36 35.5708 14.63 35.5108 13.77C35.4908 13.29 35.5208 12.86 35.6008 12.48C35.8008 11.54 36.2808 10.69 37.0408 9.93C37.8208 9.15 38.7008 8.64 39.6808 8.4ZM42.3208 10.14C42.0408 10.02 41.7708 9.99 41.5108 10.05C41.3108 10.09 41.1008 10.22 40.8808 10.44C40.6608 10.66 40.5208 10.89 40.4608 11.13C40.3008 11.69 40.1408 12.24 39.9808 12.78C39.7408 13.7 39.6008 14.35 39.5608 14.73C39.5408 15.09 39.5608 15.34 39.6208 15.48C39.6808 15.6 39.8308 15.71 40.0708 15.81C40.5308 16.01 41.0008 15.87 41.4808 15.39C41.9608 14.89 42.3508 14.17 42.6508 13.23C42.8308 12.57 42.8908 11.93 42.8308 11.31C42.7708 10.67 42.6008 10.28 42.3208 10.14ZM53.5722 1.89C53.5522 1.87 53.5322 1.86 53.5122 1.86C53.5322 1.88 53.5522 1.89 53.5722 1.89ZM62.0322 10.29C62.0122 10.29 61.9922 10.29 61.9722 10.29C61.9922 10.31 62.0022 10.33 62.0022 10.35C62.0222 10.33 62.0322 10.31 62.0322 10.29ZM53.3922 0.509999C53.5922 0.529999 53.9322 0.589999 54.4122 0.689999C54.6722 0.749999 54.8822 0.789999 55.0422 0.809999C55.6422 0.909999 56.1122 0.919999 56.4522 0.839998C56.4522 0.819999 56.5122 0.789999 56.6322 0.75C56.7722 0.709999 56.9122 0.669999 57.0522 0.629999C57.2122 0.589999 57.3122 0.559999 57.3522 0.539999C57.3922 0.519999 57.4222 0.509999 57.4422 0.509999C57.7422 0.409999 57.9822 0.339999 58.1622 0.299998C58.2822 0.259999 58.3822 0.239999 58.4622 0.239999C58.5222 0.219999 58.5722 0.209999 58.6122 0.209999C58.6722 0.209999 58.7322 0.209999 58.7922 0.209999C58.9522 0.249999 59.0822 0.329998 59.1822 0.449998C59.3022 0.569999 59.3622 0.729999 59.3622 0.929999C59.3622 0.99 59.3522 1.07 59.3322 1.17C59.3122 1.27 59.2822 1.39 59.2422 1.53C59.1622 1.75 59.0422 2.05 58.8822 2.43C58.8622 2.47 58.8422 2.51 58.8222 2.55C58.7822 2.65 58.6922 2.85 58.5522 3.15C58.1922 5.31 57.5422 7.99 56.6022 11.19C56.9622 10.79 57.3522 10.42 57.7722 10.08C59.0922 9.04 60.3022 8.52 61.4022 8.52C61.4222 8.52 61.4822 8.52 61.5822 8.52C61.9222 8.52 62.1922 8.52 62.3922 8.52C62.7122 8.56 62.9822 8.61 63.2022 8.67C63.5822 8.79 63.8522 8.98 64.0122 9.24C64.1922 9.5 64.2522 9.89 64.1922 10.41C64.1722 10.75 64.0822 11.2 63.9222 11.76C63.9022 11.9 63.8622 12.05 63.8022 12.21C63.8422 12.59 63.8122 13.01 63.7122 13.47C63.6122 13.93 63.3922 14.62 63.0522 15.54V15.57C62.7122 16.47 62.5022 17.13 62.4222 17.55C62.3422 18.05 62.3522 18.47 62.4522 18.81C62.7922 18.59 63.1222 18.35 63.4422 18.09C63.5022 17.97 63.5622 17.85 63.6222 17.73C63.7622 17.51 63.8922 17.32 64.0122 17.16C64.2522 16.86 64.5022 16.68 64.7622 16.62C65.0422 16.54 65.2822 16.59 65.4822 16.77C65.6422 16.89 65.7622 17.07 65.8422 17.31C65.8822 17.43 65.8822 17.55 65.8422 17.67C65.8222 17.73 65.8022 17.79 65.7822 17.85C65.7622 17.89 65.7322 17.94 65.6922 18C65.6322 18.08 65.5622 18.16 65.4822 18.24C65.4822 18.26 65.4722 18.28 65.4522 18.3C65.4122 18.36 65.3522 18.42 65.2722 18.48C65.2722 18.5 65.2522 18.53 65.2122 18.57H65.1822C64.4622 19.37 63.6922 20.02 62.8722 20.52C62.0522 21 61.2822 21.26 60.5622 21.3C60.1022 21.34 59.6722 21.26 59.2722 21.06H59.2422C58.8022 21.02 58.4722 20.79 58.2522 20.37C57.9722 20.05 57.7822 19.66 57.6822 19.2C57.6222 18.86 57.6022 18.49 57.6222 18.09C57.6022 17.83 57.5922 17.56 57.5922 17.28C57.5922 17.06 57.6822 16.89 57.8622 16.77C57.9822 16.27 58.1522 15.74 58.3722 15.18C58.3922 15.12 58.4122 15.07 58.4322 15.03C58.4322 14.99 58.4422 14.94 58.4622 14.88C58.6622 13.72 58.7922 12.92 58.8522 12.48C58.9122 11.94 58.9322 11.53 58.9122 11.25C58.6122 11.49 58.2222 11.9 57.7422 12.48C57.0622 13.32 56.3722 14.33 55.6722 15.51C55.1722 16.37 54.5922 17.46 53.9322 18.78C53.8922 18.84 53.8522 18.89 53.8122 18.93C53.7922 19.01 53.7722 19.09 53.7522 19.17C53.5922 19.91 53.4522 20.53 53.3322 21.03C53.2922 21.21 53.1922 21.34 53.0322 21.42C52.8722 21.52 52.7022 21.55 52.5222 21.51C52.4422 21.49 52.3622 21.45 52.2822 21.39C50.8622 21.59 49.7022 21.67 48.8022 21.63C48.6222 21.61 48.4622 21.53 48.3222 21.39C48.2022 21.27 48.1522 21.12 48.1722 20.94C48.1722 20.82 48.2022 20.71 48.2622 20.61C48.2822 20.53 48.3122 20.45 48.3522 20.37C48.9522 19.31 50.0122 16.47 51.5322 11.85C52.8922 7.69 53.7122 4.86 53.9922 3.36C53.8922 3.32 53.7822 3.29 53.6622 3.27C53.6222 3.25 53.5022 3.22 53.3022 3.18C53.0622 3.12 52.8822 3.06 52.7622 3C52.4822 2.88 52.2922 2.71 52.1922 2.49C52.0722 2.23 52.0622 1.94 52.1622 1.62C52.2422 1.4 52.3922 1.15 52.6122 0.87C52.6922 0.749999 52.8022 0.669999 52.9422 0.629999C53.0822 0.529999 53.2322 0.489999 53.3922 0.509999ZM71.811 3.93C73.311 4.11 74.611 4.13 75.711 3.99C75.891 3.95 76.051 3.99 76.191 4.11C76.331 4.21 76.411 4.35 76.431 4.53C76.471 4.83 76.361 5.05 76.101 5.19C75.861 6.13 75.501 7.23 75.021 8.49C75.161 8.51 75.391 8.52 75.711 8.52H75.741C76.301 8.54 76.731 8.57 77.031 8.61C77.211 8.65 77.351 8.74 77.451 8.88C77.571 9.02 77.611 9.18 77.571 9.36C77.551 9.64 77.401 9.82 77.121 9.9C77.101 9.98 77.071 10.05 77.031 10.11C76.951 10.23 76.851 10.34 76.731 10.44C76.311 10.76 75.711 10.99 74.931 11.13C74.611 11.19 74.281 11.23 73.941 11.25C73.421 12.61 73.031 13.73 72.771 14.61C72.351 16.07 72.121 17.41 72.081 18.63C72.081 18.65 72.091 18.66 72.111 18.66C72.211 19.02 72.331 19.27 72.471 19.41C72.671 19.21 72.951 18.86 73.311 18.36C73.331 18.34 73.371 18.27 73.431 18.15C73.431 18.13 73.451 18.09 73.491 18.03C73.531 17.95 73.561 17.88 73.581 17.82C73.621 17.76 73.641 17.72 73.641 17.7C73.741 17.52 73.821 17.37 73.881 17.25C73.901 17.21 73.911 17.18 73.911 17.16C73.871 16.98 73.891 16.81 73.971 16.65C74.071 16.49 74.211 16.39 74.391 16.35C75.031 16.17 75.531 16.19 75.891 16.41C76.131 16.55 76.291 16.76 76.371 17.04C76.411 17.24 76.411 17.45 76.371 17.67C76.291 18.01 76.111 18.35 75.831 18.69C75.571 19.03 75.271 19.3 74.931 19.5C74.911 19.52 74.881 19.55 74.841 19.59C74.281 20.19 73.701 20.64 73.101 20.94C72.681 21.16 72.281 21.27 71.901 21.27C71.461 21.41 71.001 21.45 70.521 21.39C69.821 21.31 69.311 21.2 68.991 21.06C68.371 20.78 67.941 20.34 67.701 19.74C67.341 18.82 67.381 17.55 67.821 15.93C67.981 15.33 68.201 14.61 68.481 13.77C68.661 13.31 68.951 12.57 69.351 11.55C69.391 11.43 69.431 11.32 69.471 11.22C69.471 11.2 69.481 11.18 69.501 11.16C68.941 11.14 68.501 11.06 68.181 10.92C67.401 10.62 67.111 10.03 67.311 9.15C67.351 8.97 67.441 8.83 67.581 8.73C67.741 8.63 67.911 8.6 68.091 8.64H68.121C68.581 8.64 69.121 8.7 69.741 8.82C69.921 8.86 70.111 8.9 70.311 8.94C70.451 8.54 70.571 8.16 70.671 7.8C71.011 6.64 71.161 5.69 71.121 4.95C71.121 4.91 71.121 4.87 71.121 4.83C71.081 4.73 71.071 4.62 71.091 4.5C71.111 4.32 71.191 4.18 71.331 4.08C71.471 3.96 71.631 3.91 71.811 3.93ZM83.748 1.89C83.728 1.87 83.708 1.86 83.688 1.86C83.708 1.88 83.728 1.89 83.748 1.89ZM92.208 10.29C92.188 10.29 92.168 10.29 92.148 10.29C92.168 10.31 92.178 10.33 92.178 10.35C92.198 10.33 92.208 10.31 92.208 10.29ZM83.568 0.509999C83.768 0.529999 84.108 0.589999 84.588 0.689999C84.848 0.749999 85.058 0.789999 85.218 0.809999C85.818 0.909999 86.288 0.919999 86.628 0.839998C86.628 0.819999 86.688 0.789999 86.808 0.75C86.948 0.709999 87.088 0.669999 87.228 0.629999C87.388 0.589999 87.488 0.559999 87.528 0.539999C87.568 0.519999 87.598 0.509999 87.618 0.509999C87.918 0.409999 88.158 0.339999 88.338 0.299998C88.458 0.259999 88.558 0.239999 88.638 0.239999C88.698 0.219999 88.748 0.209999 88.788 0.209999C88.848 0.209999 88.908 0.209999 88.968 0.209999C89.128 0.249999 89.258 0.329998 89.358 0.449998C89.478 0.569999 89.538 0.729999 89.538 0.929999C89.538 0.99 89.528 1.07 89.508 1.17C89.488 1.27 89.458 1.39 89.418 1.53C89.338 1.75 89.218 2.05 89.058 2.43C89.038 2.47 89.018 2.51 88.998 2.55C88.958 2.65 88.868 2.85 88.728 3.15C88.368 5.31 87.718 7.99 86.778 11.19C87.138 10.79 87.528 10.42 87.948 10.08C89.268 9.04 90.478 8.52 91.578 8.52C91.598 8.52 91.658 8.52 91.758 8.52C92.098 8.52 92.368 8.52 92.568 8.52C92.888 8.56 93.158 8.61 93.378 8.67C93.758 8.79 94.028 8.98 94.188 9.24C94.368 9.5 94.428 9.89 94.368 10.41C94.348 10.75 94.258 11.2 94.098 11.76C94.078 11.9 94.038 12.05 93.978 12.21C94.018 12.59 93.988 13.01 93.888 13.47C93.788 13.93 93.568 14.62 93.228 15.54V15.57C92.888 16.47 92.678 17.13 92.598 17.55C92.518 18.05 92.528 18.47 92.628 18.81C92.968 18.59 93.298 18.35 93.618 18.09C93.678 17.97 93.738 17.85 93.798 17.73C93.938 17.51 94.068 17.32 94.188 17.16C94.428 16.86 94.678 16.68 94.938 16.62C95.218 16.54 95.458 16.59 95.658 16.77C95.818 16.89 95.938 17.07 96.018 17.31C96.058 17.43 96.058 17.55 96.018 17.67C95.998 17.73 95.978 17.79 95.958 17.85C95.938 17.89 95.908 17.94 95.868 18C95.808 18.08 95.738 18.16 95.658 18.24C95.658 18.26 95.648 18.28 95.628 18.3C95.588 18.36 95.528 18.42 95.448 18.48C95.448 18.5 95.428 18.53 95.388 18.57H95.358C94.638 19.37 93.868 20.02 93.048 20.52C92.228 21 91.458 21.26 90.738 21.3C90.278 21.34 89.848 21.26 89.448 21.06H89.418C88.978 21.02 88.648 20.79 88.428 20.37C88.148 20.05 87.958 19.66 87.858 19.2C87.798 18.86 87.778 18.49 87.798 18.09C87.778 17.83 87.768 17.56 87.768 17.28C87.768 17.06 87.858 16.89 88.038 16.77C88.158 16.27 88.328 15.74 88.548 15.18C88.568 15.12 88.588 15.07 88.608 15.03C88.608 14.99 88.618 14.94 88.638 14.88C88.838 13.72 88.968 12.92 89.028 12.48C89.088 11.94 89.108 11.53 89.088 11.25C88.788 11.49 88.398 11.9 87.918 12.48C87.238 13.32 86.548 14.33 85.848 15.51C85.348 16.37 84.768 17.46 84.108 18.78C84.068 18.84 84.028 18.89 83.988 18.93C83.968 19.01 83.948 19.09 83.928 19.17C83.768 19.91 83.628 20.53 83.508 21.03C83.468 21.21 83.368 21.34 83.208 21.42C83.048 21.52 82.878 21.55 82.698 21.51C82.618 21.49 82.538 21.45 82.458 21.39C81.038 21.59 79.878 21.67 78.978 21.63C78.798 21.61 78.638 21.53 78.498 21.39C78.378 21.27 78.328 21.12 78.348 20.94C78.348 20.82 78.378 20.71 78.438 20.61C78.458 20.53 78.488 20.45 78.528 20.37C79.128 19.31 80.188 16.47 81.708 11.85C83.068 7.69 83.888 4.86 84.168 3.36C84.068 3.32 83.958 3.29 83.838 3.27C83.798 3.25 83.678 3.22 83.478 3.18C83.238 3.12 83.058 3.06 82.938 3C82.658 2.88 82.468 2.71 82.368 2.49C82.248 2.23 82.238 1.94 82.338 1.62C82.418 1.4 82.568 1.15 82.788 0.87C82.868 0.749999 82.978 0.669999 83.118 0.629999C83.258 0.529999 83.408 0.489999 83.568 0.509999ZM107.689 10.02C107.589 10.18 107.459 10.28 107.299 10.32C107.199 10.34 107.099 10.38 106.999 10.44C106.899 10.5 106.799 10.58 106.699 10.68C106.639 10.72 106.569 10.76 106.489 10.8C106.029 11.2 105.589 11.8 105.169 12.6C104.769 13.38 104.449 14.23 104.209 15.15C103.909 16.39 103.859 17.44 104.059 18.3C104.239 19.14 104.629 19.65 105.229 19.83C106.349 20.15 107.309 19.72 108.109 18.54C108.889 17.38 109.339 15.89 109.459 14.07C109.599 12.33 109.399 11.08 108.859 10.32C108.639 10.04 108.399 9.91 108.139 9.93C107.999 9.93 107.849 9.96 107.689 10.02ZM107.059 8.4C107.399 8.26 107.779 8.19 108.199 8.19C108.799 8.17 109.479 8.26 110.239 8.46C111.379 8.76 112.279 9.25 112.939 9.93C113.619 10.59 114.049 11.4 114.229 12.36C114.549 14.02 114.139 15.78 112.999 17.64C111.879 19.44 110.489 20.69 108.829 21.39C107.269 22.05 105.819 22 104.479 21.24C104.299 21.32 104.119 21.32 103.939 21.24C103.739 21.14 103.389 21.01 102.889 20.85C102.889 20.83 102.879 20.82 102.859 20.82H102.799C102.759 20.8 102.729 20.79 102.709 20.79C102.309 20.65 101.989 20.53 101.749 20.43C101.389 20.27 101.089 20.09 100.849 19.89C100.149 19.33 99.6691 18.61 99.4091 17.73C99.1691 16.83 99.1491 15.86 99.3491 14.82C99.5091 13.88 99.8191 13 100.279 12.18C100.739 11.36 101.269 10.71 101.869 10.23C102.689 9.59 103.709 9.11 104.929 8.79C105.549 8.63 106.259 8.5 107.059 8.4ZM119.916 17.7C119.936 17.62 119.956 17.54 119.976 17.46H119.946C119.926 17.54 119.916 17.62 119.916 17.7ZM118.356 13.68C118.396 13.48 118.446 12.96 118.506 12.12C118.506 12.1 118.506 12.06 118.506 12C118.526 11.54 118.546 11.21 118.566 11.01C118.286 11.23 118.006 11.52 117.726 11.88C117.446 12.22 117.276 12.49 117.216 12.69C117.196 12.69 117.186 12.7 117.186 12.72V12.75V12.78L117.156 12.81V12.84L117.126 12.9C117.086 12.98 117.066 13.04 117.066 13.08C117.026 13.16 116.976 13.23 116.916 13.29C116.816 13.39 116.706 13.47 116.586 13.53C116.426 13.59 116.256 13.6 116.076 13.56C116.016 13.56 115.956 13.55 115.896 13.53C115.876 13.53 115.856 13.53 115.836 13.53L115.806 13.5C115.766 13.5 115.736 13.49 115.716 13.47C115.536 13.45 115.396 13.37 115.296 13.23C115.196 13.07 115.156 12.9 115.176 12.72C115.196 12.62 115.246 12.52 115.326 12.42C115.326 12.32 115.356 12.22 115.416 12.12C116.336 10.74 117.346 9.75 118.446 9.15C118.826 8.95 119.176 8.79 119.496 8.67C119.556 8.61 119.626 8.57 119.706 8.55C120.646 8.25 121.426 8.18 122.046 8.34C122.686 8.52 123.126 8.93 123.366 9.57C123.546 10.03 123.606 10.62 123.546 11.34C123.486 11.88 123.366 12.53 123.186 13.29C123.106 13.59 123.006 13.95 122.886 14.37L122.676 15.12C122.596 15.42 122.536 15.65 122.496 15.81C122.376 16.27 122.306 16.61 122.286 16.83C122.286 16.93 122.256 17.02 122.196 17.1C122.176 17.24 122.156 17.38 122.136 17.52C122.056 17.9 122.016 18.21 122.016 18.45C122.196 18.31 122.416 18.11 122.676 17.85C122.936 17.61 123.276 17.2 123.696 16.62L123.726 16.56C123.746 16.54 123.766 16.52 123.786 16.5C123.806 16.46 123.826 16.43 123.846 16.41C124.006 16.19 124.146 16.01 124.266 15.87C124.306 15.79 124.356 15.7 124.416 15.6L124.446 15.57C124.446 15.55 124.456 15.54 124.476 15.54C124.956 14.74 125.346 14.14 125.646 13.74C125.786 13.54 125.936 13.34 126.096 13.14C126.216 12.92 126.346 12.68 126.486 12.42C126.506 12.32 126.536 12.19 126.576 12.03C126.616 11.85 126.646 11.71 126.666 11.61C126.706 11.49 126.726 11.41 126.726 11.37C126.806 11.11 126.876 10.89 126.936 10.71C126.976 10.45 127.006 10.27 127.026 10.17C127.106 9.87 127.166 9.61 127.206 9.39C127.186 9.29 127.176 9.19 127.176 9.09C127.196 8.91 127.276 8.77 127.416 8.67C127.576 8.55 127.746 8.5 127.926 8.52C128.086 8.54 128.326 8.58 128.646 8.64C128.826 8.66 128.956 8.68 129.036 8.7C129.396 8.74 129.696 8.77 129.936 8.79C130.036 8.79 130.136 8.79 130.236 8.79C130.256 8.79 130.366 8.77 130.566 8.73C130.606 8.73 130.646 8.73 130.686 8.73C130.926 8.69 131.116 8.67 131.256 8.67C131.296 8.67 131.336 8.67 131.376 8.67C131.496 8.61 131.626 8.59 131.766 8.61C131.946 8.65 132.086 8.74 132.186 8.88C132.306 9.02 132.356 9.18 132.336 9.36C132.176 10.44 131.736 11.81 131.016 13.47C130.976 13.57 130.866 13.81 130.686 14.19C130.226 15.25 129.896 16.07 129.696 16.65C129.416 17.47 129.236 18.23 129.156 18.93C129.216 19.03 129.276 19.1 129.336 19.14C129.376 19.18 129.436 19.2 129.516 19.2C129.556 19.2 129.596 19.19 129.636 19.17C129.656 19.11 129.696 19.05 129.756 18.99C129.876 18.87 130.026 18.73 130.206 18.57C130.246 18.55 130.296 18.51 130.356 18.45C130.416 18.39 130.456 18.36 130.476 18.36C130.876 18.02 131.136 17.76 131.256 17.58C131.276 17.56 131.286 17.54 131.286 17.52C131.286 17.5 131.296 17.48 131.316 17.46C131.356 17.28 131.456 17.15 131.616 17.07C131.776 16.97 131.946 16.95 132.126 17.01C132.306 17.05 132.436 17.15 132.516 17.31C132.616 17.47 132.636 17.64 132.576 17.82C132.296 18.82 131.726 19.71 130.866 20.49C130.006 21.25 129.136 21.65 128.256 21.69C127.576 22.05 126.916 21.91 126.276 21.27C125.976 20.97 125.736 20.61 125.556 20.19C125.376 19.75 125.286 19.34 125.286 18.96C125.286 18.62 125.326 18.24 125.406 17.82C125.426 17.66 125.456 17.49 125.496 17.31C125.516 16.99 125.556 16.65 125.616 16.29C125.556 16.37 125.486 16.45 125.406 16.53C125.386 16.55 125.366 16.58 125.346 16.62C124.826 17.44 124.386 18.08 124.026 18.54C123.406 19.36 122.756 20.04 122.076 20.58C121.916 20.7 121.746 20.74 121.566 20.7C121.226 20.9 120.836 21.1 120.396 21.3C119.576 21.66 118.896 21.76 118.356 21.6C117.756 21.42 117.376 20.98 117.216 20.28C117.156 20 117.126 19.67 117.126 19.29C117.066 18.89 117.086 18.45 117.186 17.97C117.326 17.35 117.566 16.51 117.906 15.45C117.926 15.39 117.946 15.3 117.966 15.18C118.146 14.64 118.276 14.24 118.356 13.98C118.336 13.88 118.336 13.78 118.356 13.68ZM146.382 20.01C146.162 20.21 145.902 20.39 145.602 20.55C144.662 21.09 143.492 21.39 142.092 21.45C140.692 21.53 139.372 21.38 138.132 21C137.332 21.02 136.582 20.63 135.882 19.83C135.702 19.69 135.542 19.54 135.402 19.38C135.282 19.24 135.232 19.07 135.252 18.87C134.952 18.21 134.972 17.62 135.312 17.1C135.692 16.54 136.282 16.28 137.082 16.32C137.842 16.36 138.462 16.68 138.942 17.28C139.362 17.8 139.582 18.44 139.602 19.2C140.122 19.42 140.602 19.58 141.042 19.68C141.822 19.88 142.422 19.91 142.842 19.77C143.202 19.67 143.402 19.38 143.442 18.9C143.462 18.56 143.332 18.23 143.052 17.91C142.852 17.67 142.462 17.32 141.882 16.86H141.852C141.492 16.58 141.232 16.37 141.072 16.23C140.532 15.91 140.092 15.62 139.752 15.36C139.112 14.86 138.642 14.3 138.342 13.68C137.762 12.52 137.822 11.46 138.522 10.5C139.062 9.74 139.962 9.13 141.222 8.67C142.282 8.27 143.422 8.03 144.642 7.95C145.862 7.87 146.832 7.97 147.552 8.25C147.632 8.29 147.702 8.34 147.762 8.4C148.182 8.5 148.522 8.71 148.782 9.03C149.222 9.61 149.342 10.33 149.142 11.19C149.062 11.55 148.932 11.87 148.752 12.15C148.572 12.39 148.362 12.57 148.122 12.69C148.082 12.73 148.042 12.78 148.002 12.84C147.682 13.14 147.282 13.18 146.802 12.96C146.502 12.82 146.172 12.55 145.812 12.15C145.532 11.83 145.262 11.35 145.002 10.71C144.982 10.65 144.932 10.53 144.852 10.35C144.172 10.05 143.422 10.02 142.602 10.26C142.062 10.74 141.842 11.27 141.942 11.85C142.062 11.93 142.182 12.02 142.302 12.12C142.502 12.26 142.762 12.44 143.082 12.66C143.522 12.94 143.812 13.13 143.952 13.23C144.652 13.71 145.212 14.12 145.632 14.46C146.212 14.98 146.642 15.48 146.922 15.96C146.962 16.02 146.992 16.08 147.012 16.14C147.272 16.48 147.452 16.82 147.552 17.16C147.772 17.98 147.482 18.86 146.682 19.8C146.602 19.9 146.502 19.97 146.382 20.01ZM157.473 14.61C159.113 14.17 160.293 13.51 161.013 12.63C161.373 12.21 161.573 11.78 161.613 11.34C161.653 11 161.593 10.71 161.433 10.47C161.293 10.29 161.103 10.19 160.863 10.17C160.563 10.15 160.213 10.29 159.813 10.59C158.913 11.31 158.133 12.65 157.473 14.61ZM158.403 16.59C158.083 16.75 157.623 17 157.023 17.34H156.993L156.963 17.37C156.943 17.39 156.923 17.4 156.903 17.4C156.903 17.56 156.903 17.7 156.903 17.82C157.103 18.44 157.403 18.9 157.803 19.2C158.023 19.14 158.393 19.03 158.913 18.87C159.773 18.61 160.413 18.39 160.833 18.21C161.493 17.91 162.063 17.52 162.543 17.04C162.663 16.92 162.803 16.86 162.963 16.86C163.023 16.82 163.083 16.8 163.143 16.8C163.683 16.74 164.083 16.78 164.343 16.92C164.643 17.08 164.783 17.33 164.763 17.67C164.763 17.83 164.713 17.98 164.613 18.12C164.573 18.28 164.493 18.4 164.373 18.48C163.373 19.14 162.573 19.64 161.973 19.98C161.493 20.32 161.003 20.57 160.503 20.73C160.023 20.93 159.483 21.14 158.883 21.36C158.283 21.66 157.693 21.85 157.113 21.93C157.073 21.93 157.043 21.94 157.023 21.96C156.883 22 156.753 22 156.633 21.96C156.113 21.96 155.613 21.87 155.133 21.69C153.973 21.21 153.173 20.3 152.733 18.96C152.313 17.62 152.373 16.22 152.913 14.76C153.213 13.98 153.623 13.24 154.143 12.54C154.223 12.42 154.303 12.29 154.383 12.15C154.423 12.09 154.463 12.03 154.503 11.97C155.203 10.97 156.153 10.12 157.353 9.42C158.573 8.68 159.833 8.23 161.133 8.07C161.333 8.03 161.523 8 161.703 7.98C162.243 7.92 162.773 7.92 163.293 7.98C164.113 8.1 164.743 8.4 165.183 8.88C166.263 10.06 166.263 11.29 165.183 12.57C164.623 13.21 163.763 13.85 162.603 14.49C161.803 15.03 160.863 15.49 159.783 15.87C159.663 15.91 159.533 15.97 159.393 16.05C159.053 16.19 158.803 16.29 158.643 16.35C158.583 16.45 158.503 16.53 158.403 16.59ZM19.45 33.66C19.57 33.6 20 33.59 20.74 33.63C21.72 33.67 22.94 33.71 24.4 33.75C26.12 33.83 27.09 33.88 27.31 33.9C27.85 34 28.18 34.22 28.3 34.56C28.4 34.84 28.35 35.1 28.15 35.34C27.97 35.56 27.56 35.86 26.92 36.24L26.11 36.72L25.33 38.97C24.89 40.29 24.34 41.85 23.68 43.65C22.32 47.35 21.59 49.75 21.49 50.85C21.45 51.15 21.45 51.35 21.49 51.45C21.55 51.53 21.69 51.57 21.91 51.57C22.05 51.57 22.33 51.64 22.75 51.78C23.15 51.92 23.4 52.08 23.5 52.26C23.7 52.58 23.75 52.93 23.65 53.31C23.55 53.69 23.35 53.96 23.05 54.12C22.85 54.22 22.35 54.25 21.55 54.21C20.75 54.19 19.86 54.22 18.88 54.3C17.94 54.36 16.95 54.39 15.91 54.39C14.61 54.37 13.87 54.35 13.69 54.33C13.51 54.31 13.37 54.23 13.27 54.09C13.05 53.79 13.02 53.33 13.18 52.71C13.26 52.43 13.35 52.25 13.45 52.17C13.57 52.07 13.8 51.99 14.14 51.93C15.1 51.79 15.8 51.39 16.24 50.73C16.7 50.07 17.17 48.75 17.65 46.77C17.93 45.67 18.07 45.09 18.07 45.03C18.07 44.99 16.83 44.97 14.35 44.97H10.63L10.15 46.5C9.87 47.3 9.6 48.2 9.34 49.2C9.1 50.2 8.98 50.82 8.98 51.06C8.98 51.44 9.36 51.7 10.12 51.84C10.5 51.9 10.75 52 10.87 52.14C11.01 52.26 11.08 52.45 11.08 52.71C11.08 52.97 11 53.28 10.84 53.64C10.68 54 10.52 54.23 10.36 54.33C10.18 54.45 9.27 54.55 7.63 54.63C5.77 54.73 4.28 54.78 3.16 54.78C2.2 54.8 1.61 54.8 1.39 54.78C1.17 54.76 0.99 54.7 0.85 54.6C0.53 54.36 0.49 53.91 0.73 53.25C0.85 52.93 0.98 52.7 1.12 52.56C1.28 52.42 1.49 52.33 1.75 52.29C2.03 52.25 2.37 52.14 2.77 51.96C3.17 51.76 3.37 51.61 3.37 51.51C3.37 51.39 3.6 50.64 4.06 49.26C4.84 47 5.58 44.75 6.28 42.51C6.66 41.29 7.05 40.05 7.45 38.79L8.08 36.93L7.84 36.69C7.68 36.53 7.39 36.43 6.97 36.39C6.39 36.33 6.03 36.17 5.89 35.91C5.75 35.63 5.81 35.21 6.07 34.65C6.27 34.25 6.45 33.99 6.61 33.87C6.75 33.79 7.14 33.75 7.78 33.75C8.44 33.73 10.13 33.74 12.85 33.78C14.33 33.8 15.2 33.82 15.46 33.84C15.74 33.86 15.93 33.92 16.03 34.02C16.19 34.18 16.26 34.37 16.24 34.59C16.22 34.79 16.13 34.98 15.97 35.16C15.77 35.38 15.31 35.7 14.59 36.12C13.85 36.58 13.42 36.86 13.3 36.96C13.18 37.08 13.01 37.49 12.79 38.19C11.87 41.13 11.41 42.66 11.41 42.78C11.41 42.8 12.41 42.81 14.41 42.81C16.35 42.81 17.56 42.83 18.04 42.87L18.7 42.96L19 42.21C19.28 41.53 19.56 40.6 19.84 39.42C20.12 38.24 20.25 37.49 20.23 37.17C20.21 37.05 20.16 36.97 20.08 36.93C20.02 36.87 19.84 36.79 19.54 36.69C19.1 36.55 18.84 36.43 18.76 36.33C18.68 36.21 18.64 35.96 18.64 35.58C18.64 35.18 18.69 34.85 18.79 34.59C18.93 34.17 19.15 33.86 19.45 33.66ZM34.3005 43.02C34.2005 43.18 34.0705 43.28 33.9105 43.32C33.8105 43.34 33.7105 43.38 33.6105 43.44C33.5105 43.5 33.4105 43.58 33.3105 43.68C33.2505 43.72 33.1805 43.76 33.1005 43.8C32.6405 44.2 32.2005 44.8 31.7805 45.6C31.3805 46.38 31.0605 47.23 30.8205 48.15C30.5205 49.39 30.4705 50.44 30.6705 51.3C30.8505 52.14 31.2405 52.65 31.8405 52.83C32.9605 53.15 33.9205 52.72 34.7205 51.54C35.5005 50.38 35.9505 48.89 36.0705 47.07C36.2105 45.33 36.0105 44.08 35.4705 43.32C35.2505 43.04 35.0105 42.91 34.7505 42.93C34.6105 42.93 34.4605 42.96 34.3005 43.02ZM33.6705 41.4C34.0105 41.26 34.3905 41.19 34.8105 41.19C35.4105 41.17 36.0905 41.26 36.8505 41.46C37.9905 41.76 38.8905 42.25 39.5505 42.93C40.2305 43.59 40.6605 44.4 40.8405 45.36C41.1605 47.02 40.7505 48.78 39.6105 50.64C38.4905 52.44 37.1005 53.69 35.4405 54.39C33.8805 55.05 32.4305 55 31.0905 54.24C30.9105 54.32 30.7305 54.32 30.5505 54.24C30.3505 54.14 30.0005 54.01 29.5005 53.85C29.5005 53.83 29.4905 53.82 29.4705 53.82H29.4105C29.3705 53.8 29.3405 53.79 29.3205 53.79C28.9205 53.65 28.6005 53.53 28.3605 53.43C28.0005 53.27 27.7005 53.09 27.4605 52.89C26.7605 52.33 26.2805 51.61 26.0205 50.73C25.7805 49.83 25.7605 48.86 25.9605 47.82C26.1205 46.88 26.4305 46 26.8905 45.18C27.3505 44.36 27.8805 43.71 28.4805 43.23C29.3005 42.59 30.3205 42.11 31.5405 41.79C32.1605 41.63 32.8705 41.5 33.6705 41.4ZM46.6157 36.93C48.1157 37.11 49.4157 37.13 50.5157 36.99C50.6957 36.95 50.8557 36.99 50.9957 37.11C51.1357 37.21 51.2157 37.35 51.2357 37.53C51.2757 37.83 51.1657 38.05 50.9057 38.19C50.6657 39.13 50.3057 40.23 49.8257 41.49C49.9657 41.51 50.1957 41.52 50.5157 41.52H50.5457C51.1057 41.54 51.5357 41.57 51.8357 41.61C52.0157 41.65 52.1557 41.74 52.2557 41.88C52.3757 42.02 52.4157 42.18 52.3757 42.36C52.3557 42.64 52.2057 42.82 51.9257 42.9C51.9057 42.98 51.8757 43.05 51.8357 43.11C51.7557 43.23 51.6557 43.34 51.5357 43.44C51.1157 43.76 50.5157 43.99 49.7357 44.13C49.4157 44.19 49.0857 44.23 48.7457 44.25C48.2257 45.61 47.8357 46.73 47.5757 47.61C47.1557 49.07 46.9257 50.41 46.8857 51.63C46.8857 51.65 46.8957 51.66 46.9157 51.66C47.0157 52.02 47.1357 52.27 47.2757 52.41C47.4757 52.21 47.7557 51.86 48.1157 51.36C48.1357 51.34 48.1757 51.27 48.2357 51.15C48.2357 51.13 48.2557 51.09 48.2957 51.03C48.3357 50.95 48.3657 50.88 48.3857 50.82C48.4257 50.76 48.4457 50.72 48.4457 50.7C48.5457 50.52 48.6257 50.37 48.6857 50.25C48.7057 50.21 48.7157 50.18 48.7157 50.16C48.6757 49.98 48.6957 49.81 48.7757 49.65C48.8757 49.49 49.0157 49.39 49.1957 49.35C49.8357 49.17 50.3357 49.19 50.6957 49.41C50.9357 49.55 51.0957 49.76 51.1757 50.04C51.2157 50.24 51.2157 50.45 51.1757 50.67C51.0957 51.01 50.9157 51.35 50.6357 51.69C50.3757 52.03 50.0757 52.3 49.7357 52.5C49.7157 52.52 49.6857 52.55 49.6457 52.59C49.0857 53.19 48.5057 53.64 47.9057 53.94C47.4857 54.16 47.0857 54.27 46.7057 54.27C46.2657 54.41 45.8057 54.45 45.3257 54.39C44.6257 54.31 44.1157 54.2 43.7957 54.06C43.1757 53.78 42.7457 53.34 42.5057 52.74C42.1457 51.82 42.1857 50.55 42.6257 48.93C42.7857 48.33 43.0057 47.61 43.2857 46.77C43.4657 46.31 43.7557 45.57 44.1557 44.55C44.1957 44.43 44.2357 44.32 44.2757 44.22C44.2757 44.2 44.2857 44.18 44.3057 44.16C43.7457 44.14 43.3057 44.06 42.9857 43.92C42.2057 43.62 41.9157 43.03 42.1157 42.15C42.1557 41.97 42.2457 41.83 42.3857 41.73C42.5457 41.63 42.7157 41.6 42.8957 41.64H42.9257C43.3857 41.64 43.9257 41.7 44.5457 41.82C44.7257 41.86 44.9157 41.9 45.1157 41.94C45.2557 41.54 45.3757 41.16 45.4757 40.8C45.8157 39.64 45.9657 38.69 45.9257 37.95C45.9257 37.91 45.9257 37.87 45.9257 37.83C45.8857 37.73 45.8757 37.62 45.8957 37.5C45.9157 37.32 45.9957 37.18 46.1357 37.08C46.2757 36.96 46.4357 36.91 46.6157 36.93ZM57.0433 47.61C58.6833 47.17 59.8633 46.51 60.5833 45.63C60.9433 45.21 61.1433 44.78 61.1833 44.34C61.2233 44 61.1633 43.71 61.0033 43.47C60.8633 43.29 60.6733 43.19 60.4333 43.17C60.1333 43.15 59.7833 43.29 59.3833 43.59C58.4833 44.31 57.7033 45.65 57.0433 47.61ZM57.9733 49.59C57.6533 49.75 57.1933 50 56.5933 50.34H56.5633L56.5333 50.37C56.5133 50.39 56.4933 50.4 56.4733 50.4C56.4733 50.56 56.4733 50.7 56.4733 50.82C56.6733 51.44 56.9733 51.9 57.3733 52.2C57.5933 52.14 57.9633 52.03 58.4833 51.87C59.3433 51.61 59.9833 51.39 60.4033 51.21C61.0633 50.91 61.6333 50.52 62.1133 50.04C62.2333 49.92 62.3733 49.86 62.5333 49.86C62.5933 49.82 62.6533 49.8 62.7133 49.8C63.2533 49.74 63.6533 49.78 63.9133 49.92C64.2133 50.08 64.3533 50.33 64.3333 50.67C64.3333 50.83 64.2833 50.98 64.1833 51.12C64.1433 51.28 64.0633 51.4 63.9433 51.48C62.9433 52.14 62.1433 52.64 61.5433 52.98C61.0633 53.32 60.5733 53.57 60.0733 53.73C59.5933 53.93 59.0533 54.14 58.4533 54.36C57.8533 54.66 57.2633 54.85 56.6833 54.93C56.6433 54.93 56.6133 54.94 56.5933 54.96C56.4533 55 56.3233 55 56.2033 54.96C55.6833 54.96 55.1833 54.87 54.7033 54.69C53.5433 54.21 52.7433 53.3 52.3033 51.96C51.8833 50.62 51.9433 49.22 52.4833 47.76C52.7833 46.98 53.1933 46.24 53.7133 45.54C53.7933 45.42 53.8733 45.29 53.9533 45.15C53.9933 45.09 54.0333 45.03 54.0733 44.97C54.7733 43.97 55.7233 43.12 56.9233 42.42C58.1433 41.68 59.4033 41.23 60.7033 41.07C60.9033 41.03 61.0933 41 61.2733 40.98C61.8133 40.92 62.3433 40.92 62.8633 40.98C63.6833 41.1 64.3133 41.4 64.7533 41.88C65.8333 43.06 65.8333 44.29 64.7533 45.57C64.1933 46.21 63.3333 46.85 62.1733 47.49C61.3733 48.03 60.4333 48.49 59.3533 48.87C59.2333 48.91 59.1033 48.97 58.9633 49.05C58.6233 49.19 58.3733 49.29 58.2133 49.35C58.1533 49.45 58.0733 49.53 57.9733 49.59ZM74.4524 34.95V34.92H74.4224L74.4524 34.95ZM70.9724 35.91C70.9324 35.93 70.9024 35.94 70.8824 35.94C70.8624 35.94 70.8324 35.95 70.7924 35.97C70.7124 35.97 70.6424 35.98 70.5824 36C70.3024 36.02 70.0724 35.94 69.8924 35.76C69.7124 35.6 69.6124 35.38 69.5924 35.1C69.5524 34.9 69.5524 34.65 69.5924 34.35C69.6124 34.07 69.7424 33.88 69.9824 33.78C70.0824 33.68 70.1924 33.62 70.3124 33.6H70.3424H70.3724L70.4024 33.57H70.4324H70.4624H70.4924H70.5224H70.5524L70.5824 33.6H70.6124H70.6424C71.1024 33.72 71.6124 33.78 72.1724 33.78C72.5524 33.78 73.0224 33.74 73.5824 33.66C73.6024 33.66 73.6524 33.66 73.7324 33.66C73.8124 33.64 73.8624 33.63 73.8824 33.63C74.0024 33.61 74.1024 33.59 74.1824 33.57C74.4024 33.55 74.5824 33.53 74.7224 33.51C74.8824 33.51 75.0224 33.52 75.1424 33.54C75.2224 33.52 75.2924 33.51 75.3524 33.51C75.5724 33.47 75.7624 33.45 75.9224 33.45C76.2024 33.45 76.4324 33.51 76.6124 33.63C76.8124 33.73 76.9424 33.88 77.0024 34.08C77.0424 34.2 77.0524 34.34 77.0324 34.5C77.0124 34.64 76.9524 34.8 76.8524 34.98C76.8124 35.06 76.7724 35.13 76.7324 35.19C76.7124 35.25 76.6724 35.32 76.6124 35.4C76.5924 35.44 76.5724 35.47 76.5524 35.49C75.8324 36.89 75.2124 38.62 74.6924 40.68C74.6524 40.86 74.5424 41 74.3624 41.1C74.2424 41.46 74.1324 41.8 74.0324 42.12C73.8924 43.46 73.5024 45.17 72.8624 47.25C72.7424 47.65 72.5724 48.19 72.3524 48.87C71.9124 50.27 71.6124 51.23 71.4524 51.75C71.6124 51.83 71.7724 51.89 71.9324 51.93C71.9924 51.89 72.0524 51.84 72.1124 51.78C72.7124 51.32 73.1824 50.9 73.5224 50.52C73.5824 50.44 73.6524 50.38 73.7324 50.34C73.7724 50.32 73.8124 50.3 73.8524 50.28C73.9324 50.26 74.0124 50.24 74.0924 50.22C74.1724 50.2 74.2424 50.18 74.3024 50.16C74.3424 50.16 74.3824 50.16 74.4224 50.16C74.5424 50.16 74.6524 50.18 74.7524 50.22C74.9924 50.3 75.1324 50.48 75.1724 50.76C75.1924 50.86 75.1824 50.96 75.1424 51.06C75.1224 51.16 75.0824 51.26 75.0224 51.36C74.9424 51.46 74.8424 51.6 74.7224 51.78C74.4624 52.12 74.2624 52.35 74.1224 52.47C73.2824 53.23 72.5524 53.78 71.9324 54.12C71.3924 54.38 70.8924 54.52 70.4324 54.54C70.2924 54.54 70.1624 54.53 70.0424 54.51C69.3224 54.75 68.7024 54.75 68.1824 54.51C67.3624 54.15 66.9524 53.29 66.9524 51.93C66.9524 51.33 67.0824 50.77 67.3424 50.25C67.6024 48.83 68.1524 46.8 68.9924 44.16C69.1324 43.7 69.2924 43.2 69.4724 42.66C69.5124 42.5 69.7524 41.75 70.1924 40.41C70.6524 39.05 70.9324 38.22 71.0324 37.92C71.1524 37.56 71.2524 37.23 71.3324 36.93C71.3524 36.59 71.3124 36.31 71.2124 36.09C71.1924 36.03 71.1724 35.97 71.1524 35.91L71.1224 35.88H71.0924C71.0724 35.88 71.0324 35.89 70.9724 35.91Z" fill="black"/>
</svg>
